<?xml version="1.0" encoding="UTF-8"?>
<svg version="1.1" xmlns="http://www.w3.org/2000/svg" width="32" height="32">
<path d="M0 0 C10.56 0 21.12 0 32 0 C32 10.56 32 21.12 32 32 C21.44 32 10.88 32 0 32 C0 21.44 0 10.88 0 0 Z " fill="#01125A" transform="translate(0,0)"/>
<path d="M0 0 C2.43017578 -0.34057617 2.43017578 -0.34057617 5.4453125 -0.29296875 C6.52167969 -0.28330078 7.59804687 -0.27363281 8.70703125 -0.26367188 C10.39892578 -0.2259668 10.39892578 -0.2259668 12.125 -0.1875 C13.26066406 -0.17396484 14.39632813 -0.16042969 15.56640625 -0.14648438 C18.37780485 -0.11104658 21.18896075 -0.05723836 24 0 C24 6.6 24 13.2 24 20 C23.01 19.01 22.02 18.02 21 17 C18.69 17.99 16.38 18.98 14 20 C14 18.02 14 16.04 14 14 C13.34 14 12.68 14 12 14 C12 14.99 12 15.98 12 17 C11.01 17 10.02 17 9 17 C9 17.66 9 18.32 9 19 C8.34 19 7.68 19 7 19 C6.7525 19.61875 6.505 20.2375 6.25 20.875 C4.79371361 23.35068687 3.62187494 23.95125002 1 25 C0.67 24.01 0.34 23.02 0 22 C1.32 21.67 2.64 21.34 4 21 C4.12375 20.360625 4.2475 19.72125 4.375 19.0625 C4.58125 18.381875 4.7875 17.70125 5 17 C5.66 16.67 6.32 16.34 7 16 C8.13350534 13.98330173 8.13350534 13.98330173 9 12 C7.68 11.34 6.36 10.68 5 10 C5.66 9.67 6.32 9.34 7 9 C6.34 8.34 5.68 7.68 5 7 C5.99 6.67 6.98 6.34 8 6 C6.68 5.67 5.36 5.34 4 5 C4 4.34 4 3.68 4 3 C2.02 3 0.04 3 -2 3 C-1.34 2.01 -0.68 1.02 0 0 Z " fill="#0F59BB" transform="translate(8,0)"/>
<path d="M0 0 C0.66 0 1.32 0 2 0 C2.33 1.65 2.66 3.3 3 5 C3.66 4.34 4.32 3.68 5 3 C5.66 3 6.32 3 7 3 C7.99 2.67 8.98 2.34 10 2 C12 6 12 6 12 18 C3.09 18 -5.82 18 -15 18 C-6.75 7 -6.75 7 -5 5 C-4.34 5 -3.68 5 -3 5 C-3 4.34 -3 3.68 -3 3 C-2.01 3 -1.02 3 0 3 C0 2.01 0 1.02 0 0 Z " fill="#030F2A" transform="translate(20,14)"/>
<path d="M0 0 C0.66 0 1.32 0 2 0 C2.33 1.65 2.66 3.3 3 5 C3.66 4.34 4.32 3.68 5 3 C5.66 3 6.32 3 7 3 C7.99 2.67 8.98 2.34 10 2 C12.14336161 5.4766338 12.21277626 8.21229195 12.125 12.25 C12.10695313 13.32765625 12.08890625 14.4053125 12.0703125 15.515625 C12.04710938 16.33546875 12.02390625 17.1553125 12 18 C10.68 18 9.36 18 8 18 C7.67 15.03 7.34 12.06 7 9 C6.34 10.32 5.68 11.64 5 13 C4.67 12.01 4.34 11.02 4 10 C3.67 10.66 3.34 11.32 3 12 C2.01 12 1.02 12 0 12 C0 11.34 0 10.68 0 10 C0.66 10 1.32 10 2 10 C1.67 9.34 1.34 8.68 1 8 C0.34 8 -0.32 8 -1 8 C-1.33 8.66 -1.66 9.32 -2 10 C-2.99 8.35 -3.98 6.7 -5 5 C-4.34 5 -3.68 5 -3 5 C-3 4.34 -3 3.68 -3 3 C-2.01 3 -1.02 3 0 3 C0 2.01 0 1.02 0 0 Z " fill="#082C9A" transform="translate(20,14)"/>
<path d="M0 0 C1.65 0.33 3.3 0.66 5 1 C4.34 1.66 3.68 2.32 3 3 C3.99 3.66 4.98 4.32 6 5 C3.25 9.875 3.25 9.875 1 11 C0.67 11.99 0.34 12.98 0 14 C-2.0625 14.6875 -2.0625 14.6875 -4 15 C-3.34 16.32 -2.68 17.64 -2 19 C-5.08290155 23.22797927 -5.08290155 23.22797927 -7 25 C-9.8125 25.375 -9.8125 25.375 -12 25 C-11.39228375 21.59678901 -10.12178918 19.69304011 -8 17 C-7.566875 16.175 -7.13375 15.35 -6.6875 14.5 C-4.59384637 11.39829092 -2.18176959 9.90906175 1 8 C-0.32 8.33 -1.64 8.66 -3 9 C-2.690625 8.443125 -2.38125 7.88625 -2.0625 7.3125 C-0.94238179 4.87459567 -0.43962636 2.63775814 0 0 Z " fill="#012457" transform="translate(12,7)"/>
<path d="M0 0 C0.99 0.66 1.98 1.32 3 2 C3.29296875 5.2578125 3.29296875 5.2578125 3.1875 9.125 C3.16042969 10.40632812 3.13335937 11.68765625 3.10546875 13.0078125 C3.07066406 13.99523438 3.03585938 14.98265625 3 16 C2.01 15.01 1.02 14.02 0 13 C-3.465 14.485 -3.465 14.485 -7 16 C-6.52651586 11.8333396 -5.95303159 9.07115285 -3 6 C-2.34 6 -1.68 6 -1 6 C-0.67 4.02 -0.34 2.04 0 0 Z " fill="#116FDE" transform="translate(29,4)"/>
<path d="M0 0 C0.66 0.33 1.32 0.66 2 1 C1.34 2.98 0.68 4.96 0 7 C-0.66 7 -1.32 7 -2 7 C-2.433125 7.928125 -2.433125 7.928125 -2.875 8.875 C-4 11 -4 11 -6 13 C-6 12.34 -6 11.68 -6 11 C-7.65 11.33 -9.3 11.66 -11 12 C-10.7834375 11.44570312 -10.566875 10.89140625 -10.34375 10.3203125 C-10.0653125 9.59585937 -9.786875 8.87140625 -9.5 8.125 C-9.2215625 7.40570312 -8.943125 6.68640625 -8.65625 5.9453125 C-7.89344982 4.02632539 -7.89344982 4.02632539 -8 2 C-7.05125 1.855625 -6.1025 1.71125 -5.125 1.5625 C-2.1065506 1.17064601 -2.1065506 1.17064601 0 0 Z " fill="#58E8FE" transform="translate(28,3)"/>
<path d="M0 0 C0 1.65 0 3.3 0 5 C-1.32 5 -2.64 5 -4 5 C-3.34 5.33 -2.68 5.66 -2 6 C-2 6.66 -2 7.32 -2 8 C-2.99 8 -3.98 8 -5 8 C-5 8.66 -5 9.32 -5 10 C-5.66 10.66 -6.32 11.32 -7 12 C-6.67 12.99 -6.34 13.98 -6 15 C-6.99 15.33 -7.98 15.66 -9 16 C-10.32229189 13.35541621 -10.09677194 11.32238699 -10.0625 8.375 C-10.05347656 7.37210938 -10.04445313 6.36921875 -10.03515625 5.3359375 C-10.02355469 4.56507812 -10.01195312 3.79421875 -10 3 C-8.68 3 -7.36 3 -6 3 C-5.67 2.34 -5.34 1.68 -5 1 C-2 0 -2 0 0 0 Z " fill="#052C75" transform="translate(10,7)"/>
<path d="M0 0 C0.99 0.33 1.98 0.66 3 1 C2.67 1.94875 2.34 2.8975 2 3.875 C0.89840809 6.77062452 0.89840809 6.77062452 1 9 C1 9.99 1 10.98 1 12 C-2.63 12 -6.26 12 -10 12 C-3.71428571 3.42857143 -3.71428571 3.42857143 0 0 Z " fill="#000626" transform="translate(15,20)"/>
<path d="M0 0 C2.64 0 5.28 0 8 0 C7.67 0.66 7.34 1.32 7 2 C6.34 2 5.68 2 5 2 C5 2.66 5 3.32 5 4 C7.475 4.99 7.475 4.99 10 6 C9.34 6.66 8.68 7.32 8 8 C7.01 8 6.02 8 5 8 C4.67 9.32 4.34 10.64 4 12 C4 11.34 4 10.68 4 10 C2.68 10 1.36 10 0 10 C0 6.7 0 3.4 0 0 Z " fill="#041D47" transform="translate(0,0)"/>
<path d="M0 0 C1.65 0.33 3.3 0.66 5 1 C4.34 1.66 3.68 2.32 3 3 C3.99 3.66 4.98 4.32 6 5 C3.25 9.875 3.25 9.875 1 11 C0.67 11.99 0.34 12.98 0 14 C-2.31 14.33 -4.62 14.66 -7 15 C-4.78972846 11.62642766 -2.53600465 9.91135386 1 8 C-0.32 8.33 -1.64 8.66 -3 9 C-2.690625 8.443125 -2.38125 7.88625 -2.0625 7.3125 C-0.94238179 4.87459567 -0.43962636 2.63775814 0 0 Z " fill="#074AB5" transform="translate(12,7)"/>
<path d="M0 0 C-0.66 1.65 -1.32 3.3 -2 5 C-1.34 5.33 -0.68 5.66 0 6 C0 6.66 0 7.32 0 8 C-0.99 8 -1.98 8 -3 8 C-3 8.66 -3 9.32 -3 10 C-3.66 10 -4.32 10 -5 10 C-5.2475 10.61875 -5.495 11.2375 -5.75 11.875 C-7.20628639 14.35068687 -8.37812506 14.95125002 -11 16 C-11.33 15.01 -11.66 14.02 -12 13 C-10.68 12.67 -9.36 12.34 -8 12 C-7.814375 11.0409375 -7.814375 11.0409375 -7.625 10.0625 C-7.41875 9.381875 -7.2125 8.70125 -7 8 C-6.34 7.67 -5.68 7.34 -5 7 C-3.86649466 4.98330173 -3.86649466 4.98330173 -3 3 C-4.32 2.34 -5.64 1.68 -7 1 C-3.375 -1.125 -3.375 -1.125 0 0 Z " fill="#39C5ED" transform="translate(20,9)"/>
<path d="M0 0 C0.33 0.99 0.66 1.98 1 3 C0.34 3 -0.32 3 -1 3 C-1 3.66 -1 4.32 -1 5 C-0.01 5.33 0.98 5.66 2 6 C2 7.32 2 8.64 2 10 C-0.97 9.67 -3.94 9.34 -7 9 C-5.50517801 4.74550664 -4.1016749 2.05083745 0 0 Z " fill="#05266C" transform="translate(21,21)"/>
<path d="M0 0 C0.99 0.33 1.98 0.66 3 1 C2.01 2.485 2.01 2.485 1 4 C0.71125 5.155 0.4225 6.31 0.125 7.5 C-1.04888124 11.15207497 -1.74448223 12.1552066 -5 14 C-5 11.36 -5 8.72 -5 6 C-4.01 6 -3.02 6 -2 6 C-2.33 5.01 -2.66 4.02 -3 3 C-2.01 2.67 -1.02 2.34 0 2 C0 1.34 0 0.68 0 0 Z " fill="#010F3E" transform="translate(5,15)"/>
<path d="M0 0 C0.66 0.33 1.32 0.66 2 1 C2 4.3 2 7.6 2 11 C0.68 11 -0.64 11 -2 11 C-2 7.7 -2 4.4 -2 1 C-1.34 0.67 -0.68 0.34 0 0 Z " fill="#051850" transform="translate(30,21)"/>
<path d="M0 0 C0.99 0.33 1.98 0.66 3 1 C2.375 3.875 2.375 3.875 1 7 C-2.125 8.375 -2.125 8.375 -5 9 C-5.33 8.01 -5.66 7.02 -6 6 C-4.02 4.02 -2.04 2.04 0 0 Z " fill="#000D2E" transform="translate(15,20)"/>
<path d="M0 0 C0.99 0 1.98 0 3 0 C3 0.66 3 1.32 3 2 C3.66 2 4.32 2 5 2 C5 2.99 5 3.98 5 5 C4.34 5.66 3.68 6.32 3 7 C3.33 7.99 3.66 8.98 4 10 C3.01 10.33 2.02 10.66 1 11 C-0.20272819 8.59454362 -0.10071472 7.05003047 -0.0625 4.375 C-0.05347656 3.55773437 -0.04445312 2.74046875 -0.03515625 1.8984375 C-0.02355469 1.27195312 -0.01195312 0.64546875 0 0 Z " fill="#104D76" transform="translate(0,12)"/>
<path d="M0 0 C4.62 0 9.24 0 14 0 C12.68 0.33 11.36 0.66 10 1 C10 1.66 10 2.32 10 3 C7.29120665 4.35439668 4.99066732 4.06501451 2 4 C2 3.01 2 2.02 2 1 C1.34 0.67 0.68 0.34 0 0 Z " fill="#3DA8F2" transform="translate(16,0)"/>
<path d="M0 0 C0.99 1.32 1.98 2.64 3 4 C2.67 4.66 2.34 5.32 2 6 C1.360625 6.12375 0.72125 6.2475 0.0625 6.375 C-2.19851273 6.80939427 -2.19851273 6.80939427 -3.25 9.0625 C-3.4975 9.701875 -3.745 10.34125 -4 11 C-4.49230769 4.6 -4.49230769 4.6 -2 1.5625 C-1.34 1.046875 -0.68 0.53125 0 0 Z " fill="#124497" transform="translate(29,16)"/>
<path d="M0 0 C1.65 0 3.3 0 5 0 C5 2.64 5 5.28 5 8 C4.566875 7.505 4.13375 7.01 3.6875 6.5 C2.00259517 4.66781808 2.00259517 4.66781808 -1 5 C-0.67 3.35 -0.34 1.7 0 0 Z " fill="#3789CC" transform="translate(27,12)"/>
<path d="M0 0 C1.9453125 -0.29296875 1.9453125 -0.29296875 4.125 -0.1875 C5.40375 -0.125625 6.6825 -0.06375 8 0 C7.34 1.32 6.68 2.64 6 4 C3.36 3.67 0.72 3.34 -2 3 C-1.34 2.01 -0.68 1.02 0 0 Z " fill="#1F81BC" transform="translate(8,0)"/>
<path d="M0 0 C0.66 0.33 1.32 0.66 2 1 C1.34 2.98 0.68 4.96 0 7 C-0.66 6.67 -1.32 6.34 -2 6 C-2 5.01 -2 4.02 -2 3 C-3.65 3.66 -5.3 4.32 -7 5 C-7.33 4.01 -7.66 3.02 -8 2 C-7.05125 1.855625 -6.1025 1.71125 -5.125 1.5625 C-2.1065506 1.17064601 -2.1065506 1.17064601 0 0 Z " fill="#3AD5F1" transform="translate(28,3)"/>
<path d="M0 0 C2.31 0.33 4.62 0.66 7 1 C7 1.66 7 2.32 7 3 C8.65 3 10.3 3 12 3 C11.67 3.66 11.34 4.32 11 5 C6.37390802 5.3227506 3.71973879 4.84450614 0 2 C0 1.34 0 0.68 0 0 Z " fill="#063185" transform="translate(5,2)"/>
<path d="M0 0 C0.66 0.99 1.32 1.98 2 3 C1.01 4.98 0.02 6.96 -1 9 C-1.99 9 -2.98 9 -4 9 C-4 8.34 -4 7.68 -4 7 C-3.34 7 -2.68 7 -2 7 C-2.33 5.35 -2.66 3.7 -3 2 C-2.34 2 -1.68 2 -1 2 C-0.67 1.34 -0.34 0.68 0 0 Z " fill="#0837B2" transform="translate(24,17)"/>
<path d="M0 0 C0.99 0.33 1.98 0.66 3 1 C1.95125002 3.62187494 1.35068687 4.79371361 -1.125 6.25 C-1.74375 6.4975 -2.3625 6.745 -3 7 C-3.33 6.01 -3.66 5.02 -4 4 C-2.68 3.67 -1.36 3.34 0 3 C0 2.01 0 1.02 0 0 Z " fill="#239ECF" transform="translate(12,18)"/>
<path d="M0 0 C0.99 0.495 0.99 0.495 2 1 C1.67 1.66 1.34 2.32 1 3 C1.66 3 2.32 3 3 3 C3.33 4.65 3.66 6.3 4 8 C2.68 8.33 1.36 8.66 0 9 C0 6.03 0 3.06 0 0 Z " fill="#00020C" transform="translate(0,0)"/>
<path d="M0 0 C0.33 0 0.66 0 1 0 C1.33 2.97 1.66 5.94 2 9 C1.01 9.33 0.02 9.66 -1 10 C-2.46726798 6.18510326 -1.43336419 3.70988378 0 0 Z " fill="#08154D" transform="translate(24,21)"/>
<path d="M0 0 C0.66 0 1.32 0 2 0 C2.33 1.98 2.66 3.96 3 6 C1.68 6 0.36 6 -1 6 C-0.67 4.02 -0.34 2.04 0 0 Z " fill="#2A95B0" transform="translate(29,26)"/>
<path d="M0 0 C0.99 0.33 1.98 0.66 3 1 C1.25 5.875 1.25 5.875 -1 7 C-1.625 4.625 -1.625 4.625 -2 2 C-1.34 1.34 -0.68 0.68 0 0 Z " fill="#075A94" transform="translate(7,23)"/>
<path d="M0 0 C0.33 0.66 0.66 1.32 1 2 C1.99 2 2.98 2 4 2 C3.6875 3.875 3.6875 3.875 3 6 C2.01 6.66 1.02 7.32 0 8 C0 5.36 0 2.72 0 0 Z " fill="#000929" transform="translate(0,21)"/>
<path d="M0 0 C1.65 0.33 3.3 0.66 5 1 C4.34 1.66 3.68 2.32 3 3 C3.99 3.66 4.98 4.32 6 5 C3.69 5 1.38 5 -1 5 C-0.67 3.35 -0.34 1.7 0 0 Z " fill="#073397" transform="translate(12,7)"/>
<path d="M0 0 C0 1.65 0 3.3 0 5 C-1.32 5 -2.64 5 -4 5 C-4.33 3.68 -4.66 2.36 -5 1 C-2 0 -2 0 0 0 Z " fill="#1C8DC0" transform="translate(10,7)"/>
<path d="M0 0 C2 3 2 3 2 6 C0.02 6 -1.96 6 -4 6 C-4 5.34 -4 4.68 -4 4 C-3.01 4 -2.02 4 -1 4 C-0.67 2.68 -0.34 1.36 0 0 Z " fill="#000214" transform="translate(14,26)"/>
<path d="M0 0 C0.66 0.33 1.32 0.66 2 1 C1.34 2.65 0.68 4.3 0 6 C-0.33 5.34 -0.66 4.68 -1 4 C-3.02463255 3.34786708 -3.02463255 3.34786708 -5 3 C-2.625 1.4375 -2.625 1.4375 0 0 Z " fill="#B1F9FE" transform="translate(24,6)"/>
<path d="M0 0 C1.485 0.99 1.485 0.99 3 2 C3.1875 5.125 3.1875 5.125 3 8 C2.34 8 1.68 8 1 8 C0.67 5.36 0.34 2.72 0 0 Z " fill="#1B7CD1" transform="translate(29,4)"/>
</svg>
